#!OML:ASF G:\JayActor3\Patient Classification 1\Patient 1\Session 6\male.ASF
:FULLY-SPECIFIED
:DEGREES
4158
root -5.7022 16.3665 2.11154 2522.46 -67.486 -2523.25
lowerback -5.75343 3.75488 6.41508
upperback 5.77493 4.55499 -2.32625
thorax 10.1535 2.75369 -5.42801
lowerneck 17.2633 3.01179 3.50069
upperneck -12.3891 4.81707 -0.643962
head -6.4938 2.20732 -1.2713
rclavicle -1.07244e-013 1.23246e-014
rhumerus -28.3095 -16.3274 -85.0402
rradius 26.3693
rwrist 5.45779
rhand -32.4428 -10.4763
rfingers 7.12502
rthumb -5.67623 -40.3802
lclavicle -1.07244e-013 1.23246e-014
lhumerus -18.5275 20.8714 77.5676
lradius 14.0377
lwrist 13.6845
lhand -20.1811 1.06693
lfingers 7.12502
lthumb 6.16495 30.9572
rfemur -7.8315 3.64845 18.2679
rtibia 36.8647
rfoot -30.6248 -19.9392
rtoes -1.1558
lfemur -6.52599 -2.69412 -12.9797
ltibia 25.0333
lfoot -13.4341 -19.8042
ltoes 12.6877
4159
root -5.70935 16.3686 2.07321 2522.8 -67.2321 -2523.6
lowerback -5.77174 3.6547 6.44202
upperback 5.84179 4.40565 -2.2289
thorax 10.209 2.68152 -5.35961
lowerneck 17.3673 2.58596 3.25725
upperneck -12.4816 4.24194 -0.30714
head -6.56797 1.90909 -1.06931
rclavicle 7.14631e-014 -3.4191e-014
rhumerus -28.1046 -16.371 -85.038
rradius 26.3171
rwrist 5.59494
rhand -32.4578 -10.483
rfingers 7.12502
rthumb -5.69079 -40.3866
lclavicle 7.14631e-014 -3.4191e-014
lhumerus -18.9415 21.1118 77.4141
lradius 14.1081
lwrist 14.1946
lhand -20.34 1.14454
lfingers 7.12502
lthumb 6.01155 31.0393
rfemur -7.81898 3.47494 18.5852
rtibia 36.8104
rfoot -30.6993 -20.0353
rtoes -1.02547
lfemur -6.65973 -2.88117 -12.6753
ltibia 25.0597
lfoot -13.3662 -19.8446
ltoes 12.5721
4160
root -5.71584 16.371 2.03545 2523.12 -66.994 -2523.91
lowerback -5.78243 3.56448 6.47241
upperback 5.89133 4.27054 -2.13568
thorax 10.2439 2.61576 -5.29609
lowerneck 17.4734 2.20943 2.99812
upperneck -12.5933 3.73339 0.0522913
head -6.64477 1.64151 -0.862706
rclavicle 4.84041e-014 1.19271e-015
rhumerus -27.9606 -16.4028 -85.0359
rradius 26.3404
rwrist 5.65581
rhand -32.4871 -10.4825
rfingers 7.12502
rthumb -5.71903 -40.3853
lclavicle 4.84041e-014 1.19271e-015
lhumerus -19.36 21.3805 77.2601
lradius 14.1323
lwrist 14.6082
lhand -20.4732 1.21692
lfingers 7.12502
lthumb 5.883 31.1153
rfemur -7.83794 3.27982 18.8802
rtibia 36.7728
rfoot -30.7434 -20.0985
rtoes -0.915271
lfemur -6.80074 -3.06238 -12.3832
ltibia 25.0772
lfoot -13.2936 -19.8678
ltoes 12.4403
4161
root -5.72181 16.3735 1.99832 2523.43 -66.7678 -2524.19
lowerback -5.7831 3.48566 6.50368
upperback 5.92189 4.15241 -2.04967
thorax 10.2552 2.55759 -5.239
lowerneck 17.5706 1.87151 2.7343
upperneck -12.7076 3.27831 0.429819
head -6.71732 1.39838 -0.653256
rclavicle -3.1408e-014 -3.97569e-016
rhumerus -27.8804 -16.4299 -85.0309
rradius 26.4351
rwrist 5.64883
rhand -32.5053 -10.4869
rfingers 7.12502
rthumb -5.73659 -40.3892
lclavicle -3.1408e-014 -3.97569e-016
lhumerus -19.7768 21.7444 77.0801
lradius 14.0845
lwrist 14.8068
lhand -20.5322 1.25786
lfingers 7.12502
lthumb 5.82597 31.1578
rfemur -7.8831 3.06325 19.1492
rtibia 36.7487
rfoot -30.7672 -20.1293
rtoes -0.814636
lfemur -6.94828 -3.23616 -12.108
ltibia 25.085
lfoot -13.2116 -19.8805
ltoes 12.3107
4162
root -5.72736 16.3762 1.9618 2523.71 -66.5541 -2524.44
lowerback -5.77207 3.41839 6.53761
upperback 5.93144 4.05176 -1.97305
thorax 10.2399 2.50735 -5.19172
lowerneck 17.6487 1.56273 2.47485
upperneck -12.8089 2.86468 0.819689
head -6.7791 1.17422 -0.443105
rclavicle -4.52235e-014 -1.63003e-014
rhumerus -27.8633 -16.4335 -85.0337
rradius 26.5968
rwrist 5.5527
rhand -32.522 -10.4954
rfingers 7.12502
rthumb -5.75271 -40.3973
lclavicle -4.52235e-014 -1.63003e-014
lhumerus -20.2006 22.1496 76.8772
lradius 13.9917
lwrist 14.8465
lhand -20.5221 1.29338
lfingers 7.12502
lthumb 5.83571 31.193
rfemur -7.9496 2.83184 19.3964
rtibia 36.7328
rfoot -30.7766 -20.1325
rtoes -0.704568
lfemur -7.10038 -3.39952 -11.8476
ltibia 25.0831
lfoot -13.1221 -19.8845
ltoes 12.1833
4163
root -5.7328 16.3791 1.926 2523.99 -66.3533 -2524.67
lowerback -5.7566 3.36026 6.57379
upperback 5.92177 3.96481 -1.90395
thorax 10.2035 2.46327 -5.15218
lowerneck 17.713 1.27865 2.23053
upperneck -12.8966 2.48717 1.20838
head -6.83084 0.96711 -0.238262
rclavicle 6.25178e-014 -1.07344e-014
rhumerus -27.9006 -16.3977 -85.0488
rradius 26.8162
rwrist 5.37622
rhand -32.5314 -10.5139
rfingers 7.12502
rthumb -5.7618 -40.4155
lclavicle 6.25178e-014 -1.07344e-014
lhumerus -20.6307 22.6062 76.6455
lradius 13.8584
lwrist 14.7256
lhand -20.469 1.33608
lfingers 7.12502
lthumb 5.88707 31.2343
rfemur -8.03046 2.59395 19.6293
rtibia 36.7189
rfoot -30.7768 -20.1164
rtoes -0.595423
lfemur -7.25446 -3.54883 -11.5967
ltibia 25.072
lfoot -13.0256 -19.8846
ltoes 12.0674
4164
root -5.73835 16.3823 1.8909 2524.24 -66.1648 -2524.87
lowerback -5.75523 3.30415 6.59497
upperback 5.90555 3.88187 -1.83843
thorax 10.1679 2.42007 -5.10687
lowerneck 17.7548 1.01518 2.00309
upperneck -12.9752 2.13856 1.58334
head -6.87284 0.774607 -0.0426254
rclavicle 5.74488e-014 -8.34896e-015
rhumerus -27.9628 -16.3061 -85.0805
rradius 27.0765
rwrist 5.14174
rhand -32.5233 -10.5402
rfingers 7.12502
rthumb -5.75397 -40.4421
lclavicle 5.74488e-014 -8.34896e-015
lhumerus -21.0556 23.0916 76.4036
lradius 13.7075
lwrist 14.515
lhand -20.412 1.39241
lfingers 7.12502
lthumb 5.94201 31.2891
rfemur -8.12013 2.34928 19.8418
rtibia 36.7033
rfoot -30.7673 -20.084
rtoes -0.487487
lfemur -7.40744 -3.68921 -11.3625
ltibia 25.0519
lfoot -12.9214 -19.8783
ltoes 11.9723
4165
root -5.74403 16.3856 1.85638 2524.48 -65.9908 -2525.04
lowerback -5.76166 3.25111 6.60492
upperback 5.87871 3.80473 -1.77935
thorax 10.1257 2.37875 -5.06113
lowerneck 17.7884 0.766102 1.80251
upperneck -13.0481 1.81329 1.94352
head -6.90898 0.593456 0.14207
rclavicle -1.39149e-014 1.31198e-014
rhumerus -28.0553 -16.1568 -85.1328
rradius 27.3688
rwrist 4.8649
rhand -32.5023 -10.5728
rfingers 7.12502
rthumb -5.73373 -40.4753
lclavicle -1.39149e-014 1.31198e-014
lhumerus -21.4805 23.5418 76.1632
lradius 13.56
lwrist 14.2908
lhand -20.3877 1.47701
lfingers 7.12502
lthumb 5.96555 31.373
rfemur -8.21475 2.11032 20.0393
rtibia 36.6825
rfoot -30.75 -20.0451
rtoes -0.389781
lfemur -7.55797 -3.81546 -11.1421
ltibia 25.0244
lfoot -12.8186 -19.8638
ltoes 11.88
4166
root -5.7499 16.3891 1.82241 2524.69 -65.8294 -2525.18
lowerback -5.78052 3.19377 6.59292
upperback 5.84828 3.7235 -1.72117
thorax 10.0845 2.33386 -5.00416
lowerneck 17.8158 0.533725 1.61088
upperneck -13.1226 1.51069 2.29127
head -6.94247 0.423904 0.319359
rclavicle 4.41302e-014 -6.75868e-015
rhumerus -28.16 -15.9386 -85.2009
rradius 27.6762
rwrist 4.57953
rhand -32.4735 -10.5952
rfingers 7.12502
rthumb -5.70586 -40.4984
lclavicle 4.41302e-014 -6.75868e-015
lhumerus -21.9024 23.984 75.9276
lradius 13.4148
lwrist 14.0425
lhand -20.4082 1.5475
lfingers 7.12502
lthumb 5.94569 31.4441
rfemur -8.30897 1.87816 20.2185
rtibia 36.6565
rfoot -30.7234 -20.0035
rtoes -0.314266
lfemur -7.70316 -3.93324 -10.9397
ltibia 24.9906
lfoot -12.7146 -19.8375
ltoes 11.7967
4167
root -5.75579 16.3924 1.78867 2524.87 -65.6828 -2525.29
lowerback -5.79588 3.13693 6.56299
upperback 5.81122 3.64547 -1.66536
thorax 10.0332 2.28893 -4.93946
lowerneck 17.8381 0.309544 1.42031
upperneck -13.2 1.21944 2.63922
head -6.97435 0.259706 0.495784
rclavicle 5.01931e-015 1.15295e-014
rhumerus -28.2807 -15.6724 -85.2757
rradius 27.991
rwrist 4.30563
rhand -32.4316 -10.6079
rfingers 7.12502
rthumb -5.6654 -40.5121
lclavicle 5.01931e-015 1.15295e-014
lhumerus -22.3176 24.4388 75.6904
lradius 13.2637
lwrist 13.7288
lhand -20.4422 1.59717
lfingers 7.12502
lthumb 5.91294 31.4947
rfemur -8.40119 1.66723 20.3829
rtibia 36.625
rfoot -30.6966 -19.9598
rtoes -0.247155
lfemur -7.84277 -4.04112 -10.7541
ltibia 24.9534
lfoot -12.611 -19.7987
ltoes 11.7317
4168
root -5.76152 16.3955 1.75501 2525.03 -65.5501 -2525.37
lowerback -5.79825 3.07952 6.51716
upperback 5.76637 3.56961 -1.61186
thorax 9.96486 2.24341 -4.86864
lowerneck 17.8492 0.0860935 1.20866
upperneck -13.2745 0.926442 3.00464
head -7.00183 0.0942594 0.681931
rclavicle 1.23246e-014 -7.95139e-016
rhumerus -28.4153 -15.3707 -85.3503
rradius 28.3015
rwrist 4.07033
rhand -32.3874 -10.5946
rfingers 7.12502
rthumb -5.62276 -40.5
lclavicle 1.23246e-014 -7.95139e-016
lhumerus -22.7337 24.9073 75.4503
lradius 13.1145
lwrist 13.3383
lhand -20.4932 1.62244
lfingers 7.12502
lthumb 5.86363 31.5213
rfemur -8.4903 1.48177 20.5326
rtibia 36.5896
rfoot -30.6759 -19.9085
rtoes -0.159926
lfemur -7.9759 -4.14041 -10.5849
ltibia 24.9145
lfoot -12.5121 -19.745
ltoes 11.6722
